<svg width="144" height="24" viewBox="0 0 144 24" fill="none" xmlns="http://www.w3.org/2000/svg">
<g clip-path="url(#clip0_681_19712)">
<path d="M9.25818 23.4876V0.513672H17.2476C18.3252 0.513672 19.3336 0.690287 20.2754 1.04352C21.2145 1.39675 22.0345 1.89295 22.7326 2.53493C23.4307 3.17691 23.9792 3.94224 24.3809 4.82812C24.7826 5.7168 24.9821 6.69519 24.9821 7.76329C24.9821 8.83139 24.7798 9.84342 24.3809 10.7321C23.9792 11.6208 23.4307 12.3833 22.7326 13.0253C22.0345 13.6673 21.2145 14.1635 20.2754 14.5167C19.3336 14.8699 18.3252 15.0466 17.2476 15.0466H13.5382V23.4848H9.25818V23.4876ZM17.3113 10.9424C18.4305 10.9424 19.2781 10.62 19.8488 9.98079C20.4195 9.33881 20.7048 8.60151 20.7048 7.7661C20.7048 7.3596 20.6356 6.96432 20.4998 6.58025C20.3613 6.19619 20.1508 5.85697 19.8654 5.56822C19.5801 5.27947 19.2255 5.04959 18.8044 4.87858C18.3806 4.70757 17.8847 4.62067 17.314 4.62067H13.541V10.9424H17.314H17.3113Z" fill="white"/>
<path d="M26.6968 0.513672H34.9716C36.1129 0.513672 37.149 0.695894 38.0798 1.06034C39.0106 1.42478 39.8084 1.92659 40.4733 2.56857C41.1381 3.21055 41.6506 3.97588 42.0107 4.86176C42.3709 5.75044 42.5509 6.71762 42.5509 7.7661C42.5509 8.53703 42.4235 9.25751 42.1714 9.93313C41.9165 10.606 41.5703 11.2171 41.1243 11.761C40.681 12.3076 40.163 12.787 39.5702 13.2047C38.9773 13.6224 38.354 13.9476 37.7002 14.1831L37.6698 14.4074L43.7588 23.2325V23.4904H38.8444L32.977 14.8587L30.9796 11.9348V23.4904H26.6996V0.513672H26.6968ZM34.9411 10.8779C35.9134 10.8779 36.7113 10.5779 37.3346 9.98079C37.9579 9.38086 38.2709 8.62114 38.2709 7.70162C38.2709 7.29512 38.2017 6.89984 38.0659 6.51297C37.9274 6.1289 37.7224 5.78689 37.4481 5.48692C37.1739 5.18696 36.8304 4.94587 36.4176 4.76645C36.0049 4.58423 35.5339 4.49452 35.0076 4.49452H30.9796V10.8807H34.9438L34.9411 10.8779Z" fill="white"/>
<path d="M126.941 0.513672H135.216C136.357 0.513672 137.393 0.695894 138.324 1.06034C139.255 1.42478 140.052 1.92659 140.717 2.56857C141.382 3.21055 141.895 3.97588 142.255 4.86176C142.615 5.75044 142.795 6.71762 142.795 7.7661C142.795 8.53703 142.667 9.25751 142.415 9.93313C142.161 10.606 141.814 11.2171 141.368 11.761C140.925 12.3076 140.407 12.787 139.814 13.2047C139.221 13.6224 138.598 13.9476 137.944 14.1831L137.914 14.4074L144.003 23.2325V23.4904H139.088L133.221 14.8587L131.224 11.9348V23.4904H126.944V0.513672H126.941ZM135.185 10.8779C136.157 10.8779 136.955 10.5779 137.579 9.98079C138.202 9.38086 138.515 8.62114 138.515 7.70162C138.515 7.29512 138.446 6.89984 138.31 6.51297C138.171 6.1289 137.966 5.78689 137.692 5.48692C137.418 5.18696 137.074 4.94587 136.662 4.76645C136.249 4.58423 135.778 4.49452 135.252 4.49452H131.224V10.8807H135.188L135.185 10.8779Z" fill="white"/>
<path d="M55.7733 24.0009C54.0807 24.0009 52.5127 23.6897 51.0639 23.0701C49.615 22.4506 48.3629 21.5983 47.3074 20.519C46.2492 19.4397 45.4209 18.167 44.817 16.7008C44.2158 15.2346 43.9139 13.6675 43.9139 11.9994C43.9139 10.3314 44.2158 8.76431 44.817 7.29813C45.4209 5.83195 46.2492 4.5592 47.3074 3.47988C48.3629 2.40057 49.6178 1.54833 51.0639 0.928779C52.5127 0.309225 54.0807 -0.00195312 55.7733 -0.00195312C57.4659 -0.00195312 59.0339 0.309225 60.4827 0.928779C61.9315 1.54833 63.1837 2.40057 64.2392 3.47988C65.2946 4.5592 66.1257 5.83195 66.7268 7.29813C67.3307 8.76431 67.6299 10.3314 67.6299 11.9994C67.6299 13.6675 67.328 15.2346 66.7268 16.7008C66.1257 18.167 65.2946 19.4397 64.2392 20.519C63.1809 21.5983 61.9288 22.4506 60.4827 23.0701C59.0339 23.6897 57.4659 24.0009 55.7733 24.0009ZM55.7733 19.8939C56.8288 19.8939 57.8177 19.7004 58.7374 19.3164C59.6572 18.9323 60.4605 18.3968 61.1476 17.7128C61.8346 17.0288 62.372 16.199 62.7654 15.2262C63.156 14.2534 63.3527 13.1769 63.3527 12.0023C63.3527 10.8276 63.156 9.75111 62.7654 8.77833C62.3748 7.80555 61.8346 6.97574 61.1476 6.29171C60.4605 5.60767 59.6572 5.07222 58.7374 4.68815C57.8177 4.30409 56.8288 4.11065 55.7733 4.11065C54.7178 4.11065 53.7289 4.30409 52.8091 4.68815C51.8894 5.07222 51.086 5.60767 50.399 6.29171C49.712 6.97574 49.1718 7.80555 48.7812 8.77833C48.3906 9.75111 48.1939 10.8276 48.1939 12.0023C48.1939 13.1769 48.3906 14.2534 48.7812 15.2262C49.1718 16.199 49.712 17.0288 50.399 17.7128C51.086 18.3968 51.8894 18.9323 52.8091 19.3164C53.7289 19.7004 54.7178 19.8939 55.7733 19.8939Z" fill="white"/>
<path d="M76.6997 23.9992C75.7274 23.9992 74.7966 23.859 73.9101 23.5814C73.0236 23.3039 72.2092 22.8862 71.4695 22.3311C70.7298 21.776 70.0844 21.0948 69.5359 20.293C68.9846 19.4913 68.5524 18.5549 68.2366 17.484L72.2646 15.8805C72.561 17.0355 73.079 17.9942 73.8187 18.7512C74.5583 19.5109 75.5307 19.8894 76.7357 19.8894C77.179 19.8894 77.6084 19.8305 78.0211 19.7127C78.4339 19.595 78.8023 19.424 79.132 19.1997C79.4589 18.9754 79.7193 18.6923 79.9077 18.3503C80.0988 18.0083 80.193 17.613 80.193 17.1644C80.193 16.7159 80.1182 16.3514 79.9714 16.0094C79.8245 15.6674 79.5752 15.3478 79.2262 15.0479C78.8771 14.7479 78.4228 14.4591 77.8632 14.1816C77.3036 13.9041 76.6111 13.6153 75.7855 13.3154L74.3893 12.8023C73.7771 12.5893 73.1566 12.3005 72.5333 11.9361C71.91 11.5716 71.3448 11.1343 70.8379 10.6213C70.3309 10.1083 69.9126 9.50271 69.5857 8.80747C69.2589 8.11222 69.0954 7.32727 69.0954 6.4498C69.0954 5.57233 69.2699 4.71168 69.619 3.93234C69.968 3.15299 70.4639 2.46615 71.1094 1.87744C71.7548 1.28872 72.525 0.828959 73.4253 0.498157C74.3228 0.167354 75.3229 0.00195312 76.4227 0.00195312C77.5225 0.00195312 78.553 0.156141 79.3869 0.467319C80.2207 0.778498 80.9299 1.17378 81.5116 1.65597C82.0934 2.13815 82.5643 2.668 82.9217 3.2427C83.2818 3.8202 83.545 4.36686 83.714 4.87989L79.9409 6.48344C79.7304 5.84146 79.3425 5.26396 78.7829 4.75093C78.2234 4.23791 77.456 3.97999 76.4836 3.97999C75.5113 3.97999 74.7827 4.19866 74.1677 4.63879C73.5555 5.07893 73.248 5.65083 73.248 6.35448C73.248 7.05814 73.5444 7.62162 74.1345 8.10381C74.7273 8.586 75.6664 9.05136 76.9573 9.49991L78.384 9.9821C79.2927 10.3017 80.1237 10.6717 80.8717 11.0894C81.6224 11.5072 82.2679 12.0034 82.8053 12.5809C83.3455 13.1584 83.7555 13.8172 84.0409 14.5545C84.3262 15.2918 84.4675 16.144 84.4675 17.1056C84.4675 18.3026 84.2292 19.3371 83.7555 20.2033C83.279 21.0696 82.6724 21.7817 81.9327 22.3367C81.1931 22.8946 80.3564 23.3095 79.4284 23.5871C78.4976 23.8646 77.589 24.0048 76.7025 24.0048L76.6997 23.9992Z" fill="white"/>
<path d="M91.1604 23.4876V4.62067H84.8193V0.513672H101.781V4.62067H95.4404V23.4876H91.1604Z" fill="white"/>
<path d="M113.507 24.0028C111.814 24.0028 110.246 23.6916 108.797 23.0721C107.348 22.4525 106.096 21.6003 105.041 20.521C103.982 19.4417 103.154 18.1689 102.55 16.7027C101.949 15.2365 101.647 13.6694 101.647 12.0014C101.647 10.3334 101.949 8.76627 102.55 7.30008C103.151 5.8339 103.982 4.56115 105.041 3.48184C106.096 2.40252 107.351 1.55029 108.797 0.930732C110.246 0.311179 111.814 0 113.507 0C115.199 0 116.767 0.311179 118.216 0.930732C119.665 1.55029 120.917 2.40252 121.972 3.48184C123.028 4.56115 123.859 5.8339 124.46 7.30008C125.061 8.76627 125.363 10.3334 125.363 12.0014C125.363 13.6694 125.061 15.2365 124.46 16.7027C123.859 18.1689 123.028 19.4417 121.972 20.521C120.914 21.6003 119.662 22.4525 118.216 23.0721C116.767 23.6916 115.199 24.0028 113.507 24.0028ZM113.507 19.8958C114.562 19.8958 115.551 19.7024 116.471 19.3183C117.39 18.9342 118.194 18.3988 118.881 17.7148C119.568 17.0307 120.108 16.2009 120.499 15.2281C120.889 14.2553 121.086 13.1788 121.086 12.0042C121.086 10.8296 120.889 9.75307 120.499 8.78028C120.108 7.8075 119.568 6.97769 118.881 6.29366C118.194 5.60963 117.39 5.07417 116.471 4.69011C115.551 4.30604 114.562 4.1126 113.507 4.1126C112.451 4.1126 111.462 4.30604 110.542 4.69011C109.623 5.07417 108.819 5.60963 108.132 6.29366C107.445 6.97769 106.905 7.8075 106.514 8.78028C106.124 9.75307 105.927 10.8296 105.927 12.0042C105.927 13.1788 106.124 14.2553 106.514 15.2281C106.905 16.2009 107.445 17.0307 108.132 17.7148C108.819 18.3988 109.623 18.9342 110.542 19.3183C111.462 19.7024 112.451 19.8958 113.507 19.8958Z" fill="white"/>
<path d="M3.14979 23.6828C3.59026 23.6828 4.00025 23.6015 4.38255 23.4417C4.76484 23.2819 5.10004 23.0604 5.38538 22.7745C5.67071 22.4885 5.8951 22.1465 6.05855 21.74C6.22199 21.3363 6.30233 20.8878 6.30233 20.4C6.30233 19.9122 6.22199 19.4636 6.05855 19.06C5.8951 18.6563 5.67071 18.3114 5.38538 18.0255C5.10004 17.7395 4.76484 17.5181 4.38255 17.3583C4.00025 17.1985 3.59026 17.1172 3.14979 17.1172C2.70932 17.1172 2.29933 17.1985 1.91703 17.3583C1.53474 17.5181 1.19954 17.7395 0.914204 18.0255C0.628869 18.3114 0.404479 18.6535 0.241035 19.06C0.0775905 19.4636 -0.00274658 19.9122 -0.00274658 20.4C-0.00274658 20.8878 0.0775905 21.3363 0.241035 21.74C0.404479 22.1437 0.628869 22.4885 0.914204 22.7745C1.19954 23.0604 1.53474 23.2819 1.91703 23.4417C2.29933 23.6015 2.70932 23.6828 3.14979 23.6828Z" fill="white"/>
</g>
<defs>
<clipPath id="clip0_681_19712">
<rect width="144" height="24" fill="white"/>
</clipPath>
</defs>
</svg>
