<svg xmlns="http://www.w3.org/2000/svg" xmlns:xlink="http://www.w3.org/1999/xlink" viewBox="98.28 305.75 2255.54 526.14">
  <defs>
    <style>
      .cls-1 {
        fill: #005bbb;
      }

      .cls-2 {
        isolation: isolate;
      }

      .cls-3 {
        fill: #ffd500;
      }

      .cls-4 {
        fill-rule: evenodd;
      }

      .cls-4, .cls-5 {
        fill: #72be44;
      }

      .cls-6 {
        fill: #f48120;
      }

      .cls-7 {
        fill: url(#linear-gradient);
        mix-blend-mode: multiply;
        opacity: .7;
      }
    </style>
    <linearGradient id="linear-gradient" x1="-6695.19" y1="-143.22" x2="-6446.79" y2="-43.46" gradientTransform="translate(-4009.37 -1694.46) rotate(-160.56) scale(1 -1)" gradientUnits="userSpaceOnUse">
      <stop offset="0" stop-color="#d3d3d3"/>
      <stop offset=".06" stop-color="#e0e0df"/>
      <stop offset=".19" stop-color="#f6f6f4"/>
      <stop offset=".27" stop-color="#fffffc"/>
      <stop offset=".65" stop-color="#e0e0e0"/>
      <stop offset=".81" stop-color="#e4e4e4"/>
      <stop offset=".99" stop-color="#f0f1f1"/>
      <stop offset="1" stop-color="#f1f2f2"/>
    </linearGradient>
  </defs>
  <g class="cls-2">
    <g id="_лой_1" data-name="Слой 1">
      <g>
        <path class="cls-4" d="M2005.45,474.58c-37.09-29.45-78.14-38.91-120.14-40.36-39.82-1.38-77.52,5.65-104.11,11.21-15.83,3.31-32.09,7.1-62.62,16.25-.05,21.53-.22,98.96-.22,98.96,0,0,19.23-15.6,36.92-23.63,39.58-17.97,83.66-25.05,120.76-19.89,44.56,6.2,65.48,35.98,65.48,65.07-60.36-8.73-125.09-6.55-175.27,8-75.73,21.95-104.16,82.56-96.68,138.71,7.05,52.94,57.23,101.35,144.48,101.35,63.09,0,115.04-42.61,129.95-70.24l1.05,60.1,112.93,.03,1.01-216.76c0-65.22-20.23-102.32-53.55-128.78h0Zm-132.87,255.35h0c-33.78,12.64-80.33,11.18-90-18.99-8.15-25.45,15.49-54.18,64.94-62.73,25.34-4.38,61.63-5.23,91.64,2.46-2.19,19.18-18.28,61.2-66.59,79.27h0Z"/>
        <path class="cls-5" d="M1644.03,819.41h-103.83l-.88-58.9c-35.41,50.66-81.14,71.21-126.57,71.38-72.27,.25-138.33-55.02-138.33-146.84v-239.81h110.91v207.78c0,61,23.24,86.37,62.9,81.42,50.49-6.3,81.61-41.66,81.61-81.43v-207.77h114.19v374.17h0Z"/>
        <path class="cls-4" d="M712.01,445.23l-105.8,256.87c-13.95-40.43-44.17-100.44-79.96-150.53-8.89,35.43-25.63,77.18-52.47,112.93,26.47,38.99,53.98,103.87,69.3,155.59h122.01l165.53-374.87h-118.61Z"/>
        <path class="cls-4" d="M1086.83,474.58c-37.09-29.45-78.14-38.91-120.14-40.36-39.82-1.38-77.64,5.12-104.11,11.21l-44.11,101.88c5.75-3.69,12.09-7.25,18.18-10.3,38.88-19.45,83.66-25.05,120.76-19.89,44.56,6.2,65.48,35.98,65.48,65.07-60.36-8.73-125.09-6.55-175.27,8-75.73,21.95-104.16,82.56-96.68,138.71,7.05,52.94,57.23,101.35,144.48,101.35,63.09,0,115.04-42.61,129.95-70.24l1.05,60.1,112.93,.03,1.01-216.76c0-65.22-20.23-102.32-53.55-128.78h0Zm-132.87,255.35h0c-33.78,12.64-80.33,11.18-90-18.99-8.15-25.45,15.49-54.18,64.94-62.73,25.34-4.38,61.63-5.23,91.64,2.46-2.19,19.18-18.28,61.2-66.59,79.27h0Z"/>
        <path class="cls-6" d="M454.39,687.14c-22.18,23.52-47.89,40.83-81.83,51.07-51.53,15.55-100.18,3.5-126.06-24.06-13.09-13.2-20.54-29.51-22.34-46.05,97.9,13.68,200.08,2.53,243.75-47.75,28.52-32.85,35.56-85.74,2.94-129.24-28.47-37.98-94.28-63.33-172.47-55.43-102.54,10.36-194.72,80.36-199.88,193.34-5.27,115.5,86.69,201.19,212.6,201.19,80.6,0,147.41-27.12,180.94-61.68-11.14-27.97-22.85-55.13-37.66-81.39h0Zm-164.66-168.19h0c33.78-12.64,80.33-11.18,90,18.99,8.15,25.45-15.48,54.18-64.94,62.73-25.34,4.38-61.63,5.23-91.65-2.46,2.19-19.18,18.28-61.2,66.59-79.27h0Z"/>
        <path class="cls-5" d="M384.1,366.73c-12.81-13.18-29.69-26.92-51.54-38.51-29.74-15.78-59.85-19.59-83.78-19.09-14.78,.31-33.81,2.52-48.01,7.28,7.4,38.39,40.96,67.74,75.61,82.17,68.33,28.47,139.76,19.48,142.77,19.08-6.21-16.87-22.83-38.34-35.05-50.93h0Z"/>
        <path class="cls-4" d="M1218.23,736.38c29.57,0,53.55,21.01,53.55,46.93s-23.97,46.93-53.55,46.93-53.55-21.01-53.55-46.93,23.97-46.93,53.55-46.93h0Z"/>
      </g>
      <g>
        <g>
          <path class="cls-3" d="M2353.12,406.97c-.62,29.88-.12,59.03-.12,89.03-88.76-33.83-181.3,29.73-270.07-4.1,.63-29.87-.75-58.75-.12-88.63,88.76,33.83,181.55-30.14,270.31,3.69Z"/>
          <path class="cls-1" d="M2083.69,311.65c88.76,33.83,180.55-29.14,269.31,4.69-.62,29.88,.75,60.75,.12,90.63-88.76-33.83-181.55,30.14-270.31-3.69,.63-29.87,.25-61.75,.88-91.63Z"/>
        </g>
        <path class="cls-7" d="M2353,316c-.42,19.92,1.17,40.17,.75,60.09-.42,19.92-1.72,39.84-1.25,59.75,.5,21.16,.25,39.56,.5,60.16-88.77-33.83-181.24,29.83-270-4,.42-19.92-.42-41.08,0-61,.39-18.93,.47-40,0-61-.44-19.4,.58-38.08,1-58,88.76,33.83,180.24-29.83,269,4Z"/>
      </g>
    </g>
  </g>
</svg>